<svg width="17" height="18" viewBox="0 0 17 18" fill="none" xmlns="http://www.w3.org/2000/svg">
<path d="M5.36842 0.6875C3.94463 0.6875 2.57915 1.2531 1.57237 2.25987C0.5656 3.26665 0 4.63213 0 6.05592V12.3191C0 13.7429 0.5656 15.1084 1.57237 16.1151C2.57915 17.1219 3.94463 17.6875 5.36842 17.6875H11.6316C13.0554 17.6875 14.4209 17.1219 15.4276 16.1151C16.4344 15.1084 17 13.7429 17 12.3191V7.84539C17 7.6081 16.9057 7.38052 16.7379 7.21272C16.5701 7.04492 16.3426 6.95066 16.1053 6.95066H15.2105C14.9732 6.95066 14.7456 6.85639 14.5779 6.6886C14.4101 6.5208 14.3158 6.29322 14.3158 6.05592C14.3158 4.63213 13.7502 3.26665 12.7434 2.25987C11.7366 1.2531 10.3712 0.6875 8.94737 0.6875H5.36842ZM5.36842 5.16118H8.94737C9.43947 5.16118 9.8421 5.56382 9.8421 6.05592C9.8421 6.54803 9.43947 6.95066 8.94737 6.95066H5.36842C4.87632 6.95066 4.47368 6.54803 4.47368 6.05592C4.47368 5.56382 4.87632 5.16118 5.36842 5.16118ZM5.36842 11.4243H11.6316C12.1237 11.4243 12.5263 11.827 12.5263 12.3191C12.5263 12.8112 12.1237 13.2138 11.6316 13.2138H5.36842C4.87632 13.2138 4.47368 12.8112 4.47368 12.3191C4.47368 11.827 4.87632 11.4243 5.36842 11.4243Z" fill="#D06051" fill-opacity="0.6"/>
</svg>
