<svg width="18" height="19" viewBox="0 0 18 19" fill="none" xmlns="http://www.w3.org/2000/svg">
<path d="M5.29282 0.1875C2.38745 0.1875 0 2.57168 0 5.48032V12.8947C0 15.8 2.38418 18.1875 5.29282 18.1875H12.7072C15.6125 18.1875 18 15.8033 18 12.8947V5.48114C18 2.57495 15.6158 0.1875 12.7072 0.1875H5.29282ZM5.29282 1.82386H12.7072C13.1875 1.82322 13.6633 1.91735 14.1072 2.10088C14.5511 2.2844 14.9545 2.55371 15.2941 2.89337C15.6338 3.23304 15.9031 3.63638 16.0866 4.08029C16.2701 4.5242 16.3643 4.99996 16.3636 5.48032V12.8947C16.3643 13.375 16.2701 13.8508 16.0866 14.2947C15.9031 14.7386 15.6338 15.142 15.2941 15.4816C14.9545 15.8213 14.5511 16.0906 14.1072 16.2741C13.6633 16.4576 13.1875 16.5518 12.7072 16.5511H5.29364C4.81321 16.5519 4.33736 16.4578 3.89336 16.2744C3.44935 16.0909 3.04591 15.8216 2.70616 15.4819C2.36641 15.1422 2.09703 14.7389 1.91346 14.2949C1.72988 13.8509 1.63572 13.3751 1.63636 12.8947V5.48114C1.63561 5.00071 1.72967 4.52486 1.91314 4.08086C2.09662 3.63685 2.36591 3.23341 2.70558 2.89366C3.04526 2.55391 3.44863 2.28453 3.8926 2.10096C4.33657 1.91738 4.8124 1.82322 5.29282 1.82386ZM13.8322 3.61405C13.7347 3.61361 13.6381 3.63249 13.548 3.66959C13.4579 3.70669 13.376 3.76127 13.3071 3.83019C13.2381 3.89911 13.1836 3.981 13.1465 4.07113C13.1094 4.16126 13.0905 4.25785 13.0909 4.35532C13.0909 4.76768 13.4198 5.09659 13.8322 5.09659C13.9297 5.09713 14.0264 5.07833 14.1166 5.04128C14.2068 5.00423 14.2888 4.94967 14.3578 4.88073C14.4268 4.8118 14.4815 4.72988 14.5187 4.63969C14.5558 4.54951 14.5747 4.45285 14.5743 4.35532C14.5747 4.25778 14.5558 4.16113 14.5187 4.07094C14.4815 3.98076 14.4268 3.89883 14.3578 3.8299C14.2888 3.76097 14.2068 3.7064 14.1166 3.66935C14.0264 3.6323 13.9297 3.6135 13.8322 3.61405ZM9 4.27841C6.3 4.27841 4.09091 6.4875 4.09091 9.1875C4.09091 11.8875 6.3 14.0966 9 14.0966C11.7 14.0966 13.9091 11.8875 13.9091 9.1875C13.9091 6.4875 11.7 4.27841 9 4.27841ZM9 5.91477C10.8188 5.91477 12.2727 7.36868 12.2727 9.1875C12.2727 11.0063 10.8188 12.4602 9 12.4602C7.18118 12.4602 5.72727 11.0063 5.72727 9.1875C5.72727 7.36868 7.18118 5.91477 9 5.91477Z" fill="#D06051" fill-opacity="0.6"/>
</svg>
