<svg width="19" height="20" viewBox="0 0 19 20" fill="none" xmlns="http://www.w3.org/2000/svg">
<path d="M2.39129 0.687501C2.07742 0.687274 1.76658 0.746074 1.47653 0.860542C1.18647 0.975011 0.922884 1.1429 0.700821 1.35463C0.478758 1.56636 0.302569 1.81778 0.182321 2.09452C0.0620719 2.37126 0.000118754 2.6679 0 2.9675C0 4.22841 1.07033 5.27341 2.38857 5.27341C3.70862 5.27341 4.77986 4.22841 4.77986 2.96923C4.7801 2.66967 4.71849 2.373 4.59856 2.09618C4.47863 1.81936 4.30272 1.56781 4.0809 1.35591C3.85908 1.14401 3.59568 0.975909 3.30577 0.86122C3.01586 0.746532 2.70511 0.687501 2.39129 0.687501ZM14.0555 6.73296C12.0478 6.73296 10.8997 7.73477 10.3478 8.73141H10.2899V7.00155H6.33333V19.6875H10.4563V13.408C10.4563 11.7533 10.5866 10.1538 12.7318 10.1538C14.8462 10.1538 14.877 12.0409 14.877 13.5125V19.6875H19V12.7197C19 9.31005 18.2319 6.73296 14.0555 6.73296ZM0.328429 7.00068V19.6875H4.45414V7.00068H0.328429Z" fill="#D06051" fill-opacity="0.6"/>
</svg>
