<svg width="157" height="34" viewBox="0 0 157 34" fill="none" xmlns="http://www.w3.org/2000/svg">
<path d="M45.64 5.5H52.16C54.4267 5.5 56.08 6.03333 57.12 7.1C58.16 8.14 58.68 9.75333 58.68 11.94V13.66C58.68 16.5667 57.72 18.4067 55.8 19.18V19.26C56.8667 19.58 57.6133 20.2333 58.04 21.22C58.4933 22.2067 58.72 23.5267 58.72 25.18V30.1C58.72 30.9 58.7467 31.5533 58.8 32.06C58.8533 32.54 58.9867 33.02 59.2 33.5H54.72C54.56 33.0467 54.4533 32.62 54.4 32.22C54.3467 31.82 54.32 31.1 54.32 30.06V24.94C54.32 23.66 54.1067 22.7667 53.68 22.26C53.28 21.7533 52.5733 21.5 51.56 21.5H50.04V33.5H45.64V5.5ZM51.64 17.5C52.52 17.5 53.1733 17.2733 53.6 16.82C54.0533 16.3667 54.28 15.6067 54.28 14.54V12.38C54.28 11.3667 54.0933 10.6333 53.72 10.18C53.3733 9.72667 52.8133 9.5 52.04 9.5H50.04V17.5H51.64ZM68.9328 33.9C66.7728 33.9 65.1195 33.2867 63.9728 32.06C62.8261 30.8333 62.2528 29.1 62.2528 26.86V12.14C62.2528 9.9 62.8261 8.16667 63.9728 6.94C65.1195 5.71333 66.7728 5.1 68.9328 5.1C71.0928 5.1 72.7461 5.71333 73.8928 6.94C75.0395 8.16667 75.6128 9.9 75.6128 12.14V26.86C75.6128 29.1 75.0395 30.8333 73.8928 32.06C72.7461 33.2867 71.0928 33.9 68.9328 33.9ZM68.9328 29.9C70.4528 29.9 71.2128 28.98 71.2128 27.14V11.86C71.2128 10.02 70.4528 9.1 68.9328 9.1C67.4128 9.1 66.6528 10.02 66.6528 11.86V27.14C66.6528 28.98 67.4128 29.9 68.9328 29.9ZM85.7484 33.9C83.5884 33.9 81.9351 33.2867 80.7884 32.06C79.6418 30.8333 79.0684 29.1 79.0684 26.86V12.14C79.0684 9.9 79.6418 8.16667 80.7884 6.94C81.9351 5.71333 83.5884 5.1 85.7484 5.1C87.9084 5.1 89.5618 5.71333 90.7084 6.94C91.8551 8.16667 92.4284 9.9 92.4284 12.14V26.86C92.4284 29.1 91.8551 30.8333 90.7084 32.06C89.5618 33.2867 87.9084 33.9 85.7484 33.9ZM85.7484 29.9C87.2684 29.9 88.0284 28.98 88.0284 27.14V11.86C88.0284 10.02 87.2684 9.1 85.7484 9.1C84.2284 9.1 83.4684 10.02 83.4684 11.86V27.14C83.4684 28.98 84.2284 29.9 85.7484 29.9ZM96.2041 5.5H107.844V9.5H100.604V17.3H106.284V21.3H100.604V33.5H96.2041V5.5ZM110.754 5.5H122.754V9.5H115.154V16.9H121.194V20.9H115.154V29.5H122.754V33.5H110.754V5.5ZM126.085 5.5H132.605C134.872 5.5 136.525 6.03333 137.565 7.1C138.605 8.14 139.125 9.75333 139.125 11.94V13.66C139.125 16.5667 138.165 18.4067 136.245 19.18V19.26C137.312 19.58 138.059 20.2333 138.485 21.22C138.939 22.2067 139.165 23.5267 139.165 25.18V30.1C139.165 30.9 139.192 31.5533 139.245 32.06C139.299 32.54 139.432 33.02 139.645 33.5H135.165C135.005 33.0467 134.899 32.62 134.845 32.22C134.792 31.82 134.765 31.1 134.765 30.06V24.94C134.765 23.66 134.552 22.7667 134.125 22.26C133.725 21.7533 133.019 21.5 132.005 21.5H130.485V33.5H126.085V5.5ZM132.085 17.5C132.965 17.5 133.619 17.2733 134.045 16.82C134.499 16.3667 134.725 15.6067 134.725 14.54V12.38C134.725 11.3667 134.539 10.6333 134.165 10.18C133.819 9.72667 133.259 9.5 132.485 9.5H130.485V17.5H132.085ZM148.738 33.9C146.605 33.9 144.991 33.3 143.898 32.1C142.805 30.8733 142.258 29.1267 142.258 26.86V25.26H146.418V27.18C146.418 28.9933 147.178 29.9 148.698 29.9C149.445 29.9 150.005 29.6867 150.378 29.26C150.778 28.8067 150.978 28.0867 150.978 27.1C150.978 25.9267 150.711 24.9 150.178 24.02C149.645 23.1133 148.658 22.0333 147.218 20.78C145.405 19.18 144.138 17.74 143.418 16.46C142.698 15.1533 142.338 13.6867 142.338 12.06C142.338 9.84667 142.898 8.14 144.018 6.94C145.138 5.71333 146.765 5.1 148.898 5.1C151.005 5.1 152.591 5.71333 153.658 6.94C154.751 8.14 155.298 9.87333 155.298 12.14V13.3H151.138V11.86C151.138 10.9 150.951 10.2067 150.578 9.78C150.205 9.32667 149.658 9.1 148.938 9.1C147.471 9.1 146.738 9.99333 146.738 11.78C146.738 12.7933 147.005 13.74 147.538 14.62C148.098 15.5 149.098 16.5667 150.538 17.82C152.378 19.42 153.645 20.8733 154.338 22.18C155.031 23.4867 155.378 25.02 155.378 26.78C155.378 29.0733 154.805 30.8333 153.658 32.06C152.538 33.2867 150.898 33.9 148.738 33.9Z" fill="#313131"/>
<path d="M7 17.4767L20 11.5L33 17.4767V33.5H7V17.4767Z" fill="#AB1E0B"/>
<path d="M20 0.5L40 19.5L20 9.69355L0 19.5L20 0.5Z" fill="#9A9A9A"/>
</svg>
