<svg width="19" height="18" viewBox="0 0 19 18" fill="none" xmlns="http://www.w3.org/2000/svg">
<path d="M19 2.5453C18.2886 2.90045 17.5339 3.13308 16.7612 3.23539C17.5747 2.68607 18.1835 1.82217 18.4743 0.804464C17.7092 1.31577 16.8727 1.67681 16.0004 1.87218C15.466 1.22794 14.772 0.779911 14.0088 0.58636C13.2456 0.392809 12.4484 0.462686 11.7209 0.786906C10.9933 1.11113 10.3691 1.67469 9.92941 2.40431C9.48971 3.13393 9.25485 3.99586 9.25537 4.87802C9.25537 5.22351 9.28942 5.55829 9.35829 5.87878C7.80782 5.79272 6.29083 5.33922 4.90619 4.54781C3.52154 3.75641 2.30031 2.64488 1.32208 1.28565C0.974523 1.95655 0.792224 2.71997 0.794042 3.49696C0.794042 5.02086 1.48042 6.36711 2.52858 7.15539C1.90947 7.13324 1.30408 6.94405 0.763167 6.60368V6.65993C0.762631 7.67512 1.07384 8.65921 1.6439 9.44494C2.21397 10.2307 3.00772 10.7696 3.89025 10.9701C3.31634 11.1475 2.71393 11.1738 2.12958 11.0468C2.37849 11.9202 2.86309 12.6841 3.5157 13.2318C4.16831 13.7795 4.95632 14.0837 5.76967 14.1018C4.96109 14.8175 4.0353 15.3463 3.04526 15.658C2.05523 15.9698 1.0204 16.0583 0 15.9185C1.78166 17.2114 3.856 17.898 5.97471 17.8959C13.1456 17.8959 17.0675 11.1968 17.0675 5.38688C17.0675 5.19941 17.0612 5.00658 17.0549 4.81821C17.8169 4.19602 18.4754 3.42685 19 2.54619V2.5453Z" fill="#D06051" fill-opacity="0.6"/>
</svg>
